<?xml version="1.0" encoding="utf-8"?>
<!-- Generator: Adobe Illustrator 26.3.1, SVG Export Plug-In . SVG Version: 6.00 Build 0)  -->
<svg version="1.1" id="Livello_1" xmlns="http://www.w3.org/2000/svg" xmlns:xlink="http://www.w3.org/1999/xlink" x="0px" y="0px"
	 viewBox="0 0 841.89 595.28" style="enable-background:new 0 0 841.89 595.28;" xml:space="preserve">
<style type="text/css">
	.st0{fill:#1D1D1B;}
</style>
<g>
	<path class="st0" d="M486.3,284.98c-12.7-33.77,7.31-62.23,28.96-71.5c24.16-10.35,52.57-2.53,67.29,18.88
		c15.2,22.13,12.7,51.2-5.81,70.19c-18.93,19.42-52.64,23.27-76.26,2.45c-29.81,21.29-59.66,42.62-89.81,64.15
		c0.81,0.4,1.33,0.72,1.89,0.92c27.31,9.72,54.62,19.43,81.93,29.14c1.1,0.39,1.99,0.83,2.97-0.56
		c8.29-11.76,16.68-23.45,25.04-35.17c0.14-0.2,0.24-0.43,0.52-0.93c-9.17-6.51-18.35-13.02-27.86-19.77
		c7.12-5.09,14.05-10.06,21.06-15.07c10.08,7.17,20.23,14.14,30.1,21.49c7.03,5.23,7.82,12.07,2.73,19.2
		c-9.12,12.81-18.29,25.6-27.58,38.6c10.81,5.93,17.42,14.84,18.87,27.11c1.04,8.78-1.18,16.88-6.42,24.05
		c-10.57,14.45-30.55,18.26-45.72,8.86c-14.95-9.26-21.7-29.76-10.76-47.86c-0.77-0.3-1.48-0.61-2.21-0.87
		c-31.55-11.19-63.1-22.37-94.64-33.56c-4.7-1.67-7.74-4.95-8.48-9.89c-0.77-5.14,1.27-9.23,5.53-12.27
		c35.98-25.65,71.95-51.31,107.92-76.98C485.83,285.41,486.07,285.18,486.3,284.98z M521.57,289.95c12.02,7.86,29.09,5.28,38.7-5.61
		c10.14-11.5,10.41-28.49,0.63-40.08c-9.91-11.75-26.79-14.34-39.79-6.22c-11.15,6.97-16.5,21.19-13.36,31.65
		c0.43-0.29,0.85-0.56,1.24-0.84c7.59-5.41,15.09-10.94,22.78-16.2c7.58-5.18,17.53-0.92,19.01,8.08c0.8,4.85-0.95,8.9-4.93,11.79
		C537.87,278.34,529.8,284.06,521.57,289.95z M516.09,437.97c0.04-5.47-4.27-9.86-9.72-9.9c-5.46-0.05-9.85,4.29-9.87,9.74
		c-0.02,5.46,4.3,9.88,9.72,9.92C511.65,447.78,516.06,443.43,516.09,437.97z"/>
	<path class="st0" d="M401.04,276.1c-8.27,8.33-17.56,14.66-28.23,18.94c-48.31,19.36-102.46-11.59-110.22-63.02
		c-6.58-43.64,22.56-84.14,66.27-92.09c44.34-8.07,87.81,23.35,94.04,68.05c2.23,15.97,0.16,31.39-6.79,46.03
		c-0.84,1.78-0.45,2.54,1.04,3.58c9.41,6.58,18.76,13.25,28.12,19.9c0.6,0.43,1.17,0.89,1.97,1.49
		c-5.64,4.03-11.09,7.94-16.56,11.83c-4.43,3.14-4.45,3.14-8.89,0C414.93,285.96,408.09,281.1,401.04,276.1z M399.34,219.81
		c0.02-30.68-25.25-56.12-55.34-56.64c-30.65-0.52-57.87,23.93-57.85,56.6c0.02,32.58,26.56,55.71,54.81,56.6
		C371.5,277.34,399.18,252.9,399.34,219.81z"/>
</g>
<g>
	<path class="st0" d="M421.46,53.78C286.73,53.78,177.5,163,177.5,297.74S286.73,541.7,421.46,541.7s243.96-109.23,243.96-243.96
		S556.2,53.78,421.46,53.78z M421.5,517.84c-121.1,0-219.27-98.17-219.27-219.27S300.39,79.29,421.5,79.29
		s219.27,98.17,219.27,219.27S542.6,517.84,421.5,517.84z"/>
</g>
</svg>
